<svg width="56" height="56" viewBox="0 0 56 56" fill="none" xmlns="http://www.w3.org/2000/svg">
<g clip-path="url(#clip0_697_9906)">
<path d="M15.7842 14.0101L36.4152 41.9892H41.0871L20.4562 14.0101H15.7842Z" fill="white"/>
<path d="M28.3944 0C13.1483 0 0.788727 12.5361 0.788727 28C0.788727 43.4639 13.1483 56 28.3944 56C43.6405 56 56 43.4639 56 28C56 12.5361 43.6405 0 28.3944 0ZM35.3128 44.2219L25.9202 31.4834L14.2947 44.2219H11.3061L24.5844 29.6725L11.3893 11.7775H21.5591L30.2096 23.5091L40.9156 11.7775H43.9043L31.5448 25.3206L45.4826 44.2219H35.3128Z" fill="white"/>
</g>
<defs>
<clipPath id="clip0_697_9906">
<rect width="55.2113" height="56" fill="white" transform="translate(0.788727)"/>
</clipPath>
</defs>
</svg>
