<svg width="57" height="56" viewBox="0 0 57 56" fill="none" xmlns="http://www.w3.org/2000/svg">
<g clip-path="url(#clip0_697_9904)">
<path d="M28.7887 0C13.3271 0 0.788727 12.5384 0.788727 28C0.788727 43.4616 13.3271 56 28.7887 56C44.2503 56 56.7887 43.4616 56.7887 28C56.7887 12.5384 44.2503 0 28.7887 0ZM20.6523 42.3281H13.833V21.8122H20.6523V42.3281ZM17.2428 19.0107H17.1984C14.9101 19.0107 13.4301 17.4355 13.4301 15.4667C13.4301 13.4536 14.9554 11.9219 17.2881 11.9219C19.6209 11.9219 21.0564 13.4536 21.1009 15.4667C21.1009 17.4355 19.6209 19.0107 17.2428 19.0107ZM45.2411 42.3281H38.4227V31.3526C38.4227 28.5943 37.4353 26.7131 34.968 26.7131C33.0843 26.7131 31.9623 27.9821 31.4693 29.207C31.289 29.6453 31.245 30.258 31.245 30.8711V42.3281H24.4261C24.4261 42.3281 24.5154 23.7369 24.4261 21.8122H31.245V24.717C32.1512 23.3191 33.7726 21.3307 37.3905 21.3307C41.877 21.3307 45.2411 24.2629 45.2411 30.5643V42.3281Z" fill="white"/>
</g>
<defs>
<clipPath id="clip0_697_9904">
<rect width="56" height="56" fill="white" transform="translate(0.788727)"/>
</clipPath>
</defs>
</svg>
