<svg width="56" height="56" viewBox="0 0 56 56" fill="none" xmlns="http://www.w3.org/2000/svg">
<g clip-path="url(#clip0_697_9909)">
<path d="M28 56C43.4677 56 56 43.4677 56 28C56 12.5323 43.4677 0 28 0C12.5323 0 0 12.5323 0 28C0 43.4677 12.5323 56 28 56ZM12.8123 27.3933L39.809 16.9843C41.062 16.5317 42.1563 17.29 41.7503 19.1847L41.7527 19.1823L37.156 40.838C36.8153 42.3733 35.903 42.7467 34.6267 42.0233L27.6267 36.8643L24.2503 40.117C23.877 40.4903 23.562 40.8053 22.8387 40.8053L23.3357 33.6817L36.309 21.9613C36.8737 21.4643 36.183 21.1843 35.4387 21.679L19.4063 31.773L12.495 29.617C10.9947 29.141 10.962 28.1167 12.8123 27.3933Z" fill="white"/>
</g>
<defs>
<clipPath id="clip0_697_9909">
<rect width="56" height="56" fill="white"/>
</clipPath>
</defs>
</svg>
