<svg width="24" height="24" viewBox="0 0 24 24" fill="none" xmlns="http://www.w3.org/2000/svg">
<path d="M15.1745 2.82353C15.0986 2.75176 15.0354 2.69096 14.9966 2.65224C13.4942 1.14976 11.1436 1.01214 9.48578 2.23942C9.31863 2.36317 9.27077 2.41581 9.27077 2.41581C9.12245 2.54701 8.89422 2.53951 8.75509 2.40034L8.26066 1.9059C8.11942 1.76467 8.12556 1.54595 8.2697 1.41264C8.2697 1.41264 8.29633 1.38104 8.44778 1.25809C10.6656 -0.542333 13.9306 -0.410334 15.9949 1.65399C16.0381 1.69712 16.1296 1.78421 16.2371 1.88495V0.706932C16.2371 0.507479 16.3967 0.352979 16.5934 0.352979H17.2926C17.4924 0.352979 17.6489 0.51062 17.6489 0.705057V3.52946C17.6489 3.91932 17.3328 4.23535 16.943 4.23535H14.1186C13.924 4.23535 13.7665 4.07584 13.7665 3.8791V3.17978C13.7665 2.97999 13.925 2.82353 14.1205 2.82353H15.1745ZM8.8292 21.1765C8.90509 21.2483 8.96833 21.3091 9.00705 21.3478C10.5443 22.885 12.9693 22.9935 14.6319 21.6732C14.7581 21.573 14.7346 21.5867 14.7346 21.5867C14.8824 21.4539 15.1094 21.4606 15.2486 21.5997L15.743 22.0941C15.8843 22.2354 15.8801 22.4535 15.7384 22.586C15.7384 22.586 15.7732 22.559 15.6575 22.6574C13.4388 24.5459 10.1049 24.4421 8.0088 22.346C7.96567 22.3028 7.87413 22.2158 7.76659 22.115V23.293C7.76659 23.4925 7.60708 23.647 7.41034 23.647H6.71106C6.51128 23.647 6.35481 23.4894 6.35481 23.2949V20.4705C6.35481 20.0807 6.67084 19.7646 7.0607 19.7646H9.88511C10.0797 19.7646 10.2372 19.9241 10.2372 20.1209V20.8201C10.2372 21.0199 10.0787 21.1764 9.88323 21.1764H8.8292V21.1765ZM19.7665 16.5882H14.8254C14.4355 16.5882 14.1195 16.2722 14.1195 15.8823V8.11763C14.1195 7.72778 14.4355 7.41174 14.8254 7.41174H19.7665C20.1564 7.41174 20.4724 7.72778 20.4724 8.11763V15.8823C20.4724 16.2722 20.1564 16.5882 19.7665 16.5882ZM9.17833 16.5882H4.23714C3.84728 16.5882 3.53125 16.2722 3.53125 15.8823V8.11763C3.53125 7.72778 3.84728 7.41174 4.23714 7.41174H9.17833C9.56819 7.41174 9.88422 7.72778 9.88422 8.11763V15.8823C9.88422 16.2722 9.56814 16.5882 9.17833 16.5882Z" fill="#00FBF9"/>
</svg>
